<svg width="456" height="528" viewBox="0 0 456 528" fill="none" xmlns="http://www.w3.org/2000/svg">
<path d="M228 528C353.921 528 456 470.217 456 398.939C456 327.66 353.921 269.878 228 269.878C102.079 269.878 0 327.66 0 398.939C0 470.217 102.079 528 228 528Z" fill="#F5F5F5"/>
<path d="M322.879 480.314L152.686 382.394C151.189 381.535 149.946 380.297 149.081 378.806C148.216 377.316 147.761 375.624 147.761 373.903C147.761 372.181 148.216 370.49 149.081 368.999C149.946 367.508 151.189 366.271 152.686 365.411L169.475 354.862C172.374 353.198 175.659 352.323 179.004 352.323C182.348 352.323 185.634 353.198 188.532 354.862L358.748 452.793C360.246 453.653 361.489 454.89 362.354 456.381C363.218 457.871 363.674 459.563 363.674 461.285C363.674 463.006 363.218 464.698 362.354 466.188C361.489 467.679 360.246 468.916 358.748 469.776L341.959 480.314C339.06 481.986 335.769 482.866 332.419 482.866C329.069 482.866 325.779 481.986 322.879 480.314Z" fill="#E0E0E0"/>
<path d="M64.102 391.041C84.4999 391.041 101.036 381.579 101.036 369.907C101.036 358.236 84.4999 348.774 64.102 348.774C43.7042 348.774 27.1685 358.236 27.1685 369.907C27.1685 381.579 43.7042 391.041 64.102 391.041Z" fill="#E6E6E6"/>
<path d="M383.232 395.884L399.431 405.165C399.431 405.165 391.158 379.258 395.566 353.144C397.233 343.275 400.808 338.375 402.058 335.734C403.307 333.094 412.992 316.78 404.372 309.309C395.751 301.838 375.7 316.861 376.787 357.064C377.282 370.223 379.447 383.267 383.232 395.884Z" fill="#005400"/>
<path opacity="0.5" d="M383.232 395.884L399.431 405.165C399.431 405.165 391.158 379.258 395.566 353.144C397.233 343.275 400.808 338.375 402.058 335.734C403.307 333.094 412.992 316.78 404.372 309.309C395.751 301.838 375.7 316.861 376.787 357.064C377.282 370.223 379.447 383.267 383.232 395.884Z" fill="black"/>
<path d="M390.764 400.772C390.647 400.775 390.531 400.74 390.433 400.674C390.336 400.608 390.261 400.513 390.221 400.403C390.163 400.23 383.972 383.374 384.169 356.28C384.366 329.186 398.656 314.474 398.794 314.336C398.848 314.282 398.912 314.239 398.983 314.209C399.053 314.18 399.129 314.165 399.205 314.165C399.282 314.165 399.357 314.18 399.428 314.209C399.498 314.239 399.562 314.282 399.616 314.336C399.67 314.389 399.713 314.453 399.743 314.523C399.772 314.593 399.787 314.669 399.787 314.745C399.787 314.821 399.772 314.896 399.743 314.967C399.713 315.037 399.67 315.101 399.616 315.154C399.477 315.292 385.523 329.566 385.326 356.291C385.13 383.017 391.239 399.85 391.308 400.011C391.36 400.155 391.353 400.313 391.288 400.452C391.223 400.59 391.105 400.697 390.961 400.749C390.898 400.769 390.831 400.776 390.764 400.772Z" fill="white"/>
<path d="M389.99 399.85L412.136 412.532C414.443 413.891 417.18 414.334 419.801 413.772C422.421 413.21 424.733 411.685 426.275 409.5C427.741 407.227 428.359 404.513 428.022 401.833C426.958 390.372 421.959 387.732 428.08 382.625C434.201 377.517 435.798 377.16 435.451 372.248C435.104 367.336 431.737 365.192 430.14 363.255C428.543 361.318 424.123 357.26 427.131 351.264C430.14 345.269 434.247 339.47 428.022 336.818C424.308 335.227 418.118 337.348 414.045 341.753C409.972 346.157 406.617 349.327 402.717 350.388C398.818 351.449 390.695 351.622 391.042 358.32C391.39 365.019 393.171 367.313 391.575 370.3C388.566 375.88 375.48 379.05 389.99 399.85Z" fill="#005400"/>
<path d="M400.935 406.675C400.791 406.671 400.653 406.615 400.547 406.517C400.441 406.42 400.373 406.288 400.357 406.145C400.357 405.753 396.955 366.184 424.262 339.85C424.374 339.758 424.518 339.711 424.664 339.719C424.809 339.728 424.946 339.791 425.047 339.896C425.148 340.001 425.206 340.14 425.208 340.286C425.211 340.431 425.158 340.572 425.06 340.68C398.147 366.633 401.479 405.649 401.514 406.041C401.526 406.192 401.479 406.342 401.382 406.459C401.284 406.575 401.144 406.649 400.993 406.664L400.935 406.675Z" fill="white"/>
<path d="M405.321 372.617C405.175 372.618 405.035 372.563 404.927 372.465C404.82 372.367 404.754 372.232 404.743 372.087C404.5 369.02 403.633 366.035 402.195 363.314C400.757 360.592 398.777 358.191 396.377 356.257C396.314 356.213 396.261 356.158 396.22 356.093C396.179 356.029 396.152 355.957 396.139 355.882C396.126 355.807 396.128 355.73 396.145 355.656C396.162 355.582 396.194 355.512 396.238 355.45C396.281 355.388 396.336 355.335 396.399 355.294C396.463 355.254 396.534 355.226 396.608 355.213C396.682 355.201 396.759 355.203 396.832 355.219C396.906 355.236 396.975 355.268 397.036 355.312C399.594 357.333 401.703 359.861 403.229 362.737C404.754 365.613 405.664 368.773 405.9 372.018C405.912 372.172 405.864 372.325 405.764 372.444C405.665 372.562 405.522 372.637 405.367 372.652L405.321 372.617Z" fill="white"/>
<path d="M403.434 379.408C403.294 379.41 403.159 379.36 403.052 379.27C402.938 379.168 402.867 379.025 402.856 378.872C402.846 378.719 402.895 378.568 402.995 378.451C403.272 378.128 410.11 370.611 426.136 372.606C426.288 372.626 426.425 372.705 426.519 372.826C426.612 372.947 426.653 373.1 426.633 373.251C426.613 373.403 426.534 373.542 426.413 373.636C426.292 373.731 426.138 373.775 425.985 373.759C410.596 371.833 403.92 379.143 403.851 379.212C403.798 379.271 403.734 379.319 403.662 379.352C403.591 379.386 403.513 379.405 403.434 379.408Z" fill="white"/>
<path d="M317.696 468.611L168.018 382.498C157.454 376.422 148.892 360.119 148.892 346.088V26.7212C148.892 12.6898 157.454 6.24487 168.018 12.3209L317.696 98.4346C328.26 104.511 336.822 120.813 336.822 134.845V454.211C336.822 468.231 328.26 474.687 317.696 468.611Z" fill="#455A64"/>
<path d="M334.937 88.3924L185.247 2.27876C180.735 -0.315376 176.592 -0.615143 173.318 0.975924C172.917 1.17597 172.53 1.40325 172.161 1.65616L155.383 11.3755C158.762 9.35785 163.182 9.50774 168.03 12.2979L317.708 98.4115C328.272 104.488 336.835 120.79 336.835 134.822V454.188C336.835 461.613 334.439 466.871 330.621 469.361L347.179 459.757C351.402 457.52 354.121 452.044 354.121 444.192V124.826C354.121 110.771 345.501 94.4684 334.937 88.3924Z" fill="#37474F"/>
<path d="M336.822 134.821V454.188C336.822 461.613 334.427 466.87 330.608 469.361L347.178 459.757C351.401 457.52 354.12 452.043 354.12 444.192V124.825L336.88 134.798L336.822 134.821Z" fill="#263238"/>
<path d="M354.063 149.602L336.822 159.518V167.265L354.063 157.339V149.602Z" fill="#37474F"/>
<path d="M346.507 201.128C344.968 202.015 343.718 201.07 343.718 199.029V182.369C343.734 181.328 343.994 180.304 344.479 179.381C344.963 178.458 345.657 177.661 346.507 177.054C348.046 176.166 349.295 177.054 349.295 179.152V195.812C349.28 196.854 349.019 197.877 348.535 198.8C348.051 199.723 347.356 200.52 346.507 201.128Z" fill="#37474F"/>
<path d="M343.706 199.076V182.369C343.722 181.328 343.982 180.305 344.467 179.382C344.951 178.459 345.646 177.662 346.495 177.054C346.749 176.877 347.044 176.77 347.353 176.741C347.661 176.713 347.972 176.765 348.254 176.893L346.159 175.821C345.873 175.683 345.555 175.624 345.238 175.648C344.921 175.672 344.616 175.78 344.354 175.959C343.504 176.566 342.808 177.363 342.322 178.286C341.836 179.209 341.573 180.232 341.554 181.274V197.923C341.511 198.343 341.575 198.768 341.741 199.157C341.907 199.546 342.169 199.887 342.503 200.148L344.69 201.301C344.342 201.051 344.067 200.713 343.894 200.322C343.721 199.93 343.656 199.5 343.706 199.076Z" fill="#455A64"/>
<path d="M346.507 241.446C344.968 242.334 343.718 241.446 343.718 239.348V222.688C343.735 221.646 343.996 220.623 344.48 219.701C344.964 218.778 345.658 217.98 346.507 217.373C348.046 216.485 349.295 217.373 349.295 219.483V236.131C349.282 237.173 349.022 238.197 348.537 239.12C348.053 240.044 347.357 240.84 346.507 241.446Z" fill="#37474F"/>
<path d="M343.706 239.348V222.688C343.723 221.647 343.984 220.624 344.468 219.701C344.952 218.778 345.646 217.98 346.495 217.373C346.75 217.199 347.046 217.093 347.353 217.065C347.661 217.036 347.971 217.087 348.254 217.211L346.159 216.128C345.875 215.984 345.556 215.921 345.238 215.946C344.919 215.97 344.614 216.081 344.354 216.266C343.502 216.871 342.805 217.668 342.319 218.591C341.832 219.514 341.57 220.538 341.554 221.581V238.276C341.51 238.696 341.574 239.121 341.74 239.511C341.906 239.9 342.168 240.241 342.503 240.501L344.69 241.654C344.328 241.398 344.044 241.047 343.87 240.64C343.696 240.233 343.64 239.785 343.706 239.348Z" fill="#455A64"/>
<path d="M312.465 107.393L165.379 22.7439C164.765 22.392 164.07 22.2062 163.362 22.2048C162.653 22.2035 161.957 22.3868 161.342 22.7364C160.727 23.086 160.214 23.5898 159.855 24.1979C159.495 24.8059 159.302 25.4971 159.293 26.2027V346.088C159.293 356.764 166.895 369.873 176.175 375.211L319.651 457.797C320.331 458.187 321.103 458.392 321.888 458.392C322.673 458.391 323.444 458.185 324.124 457.793C324.803 457.402 325.368 456.84 325.761 456.163C326.154 455.485 326.361 454.717 326.362 453.935V131.409C326.42 122.601 320.148 111.798 312.465 107.393Z" fill="#005400"/>
<path opacity="0.9" d="M312.465 107.393L165.379 22.7439C164.765 22.392 164.07 22.2062 163.362 22.2048C162.653 22.2035 161.957 22.3868 161.342 22.7364C160.727 23.086 160.214 23.5898 159.855 24.1979C159.495 24.8059 159.302 25.4971 159.293 26.2027V346.088C159.293 356.764 166.895 369.873 176.175 375.211L319.651 457.797C320.331 458.187 321.103 458.392 321.888 458.392C322.673 458.391 323.444 458.185 324.124 457.793C324.803 457.402 325.368 456.84 325.761 456.163C326.154 455.485 326.361 454.717 326.362 453.935V131.409C326.42 122.601 320.148 111.798 312.465 107.393Z" fill="white"/>
<path d="M209.371 44.8457L211.651 54.4036L260.409 82.4203L268.833 77.9468L209.371 44.8457Z" fill="#455A64"/>
<path d="M223.707 54.0808C223.707 55.6719 222.55 56.306 221.208 55.522C220.487 55.0453 219.889 54.4069 219.461 53.658C219.033 52.9092 218.787 52.0707 218.743 51.21C218.743 49.6304 219.9 48.9848 221.242 49.7803C221.963 50.2545 222.561 50.8908 222.989 51.6378C223.417 52.3849 223.663 53.2217 223.707 54.0808Z" fill="#263238"/>
<path d="M256.556 74.3152C256.289 74.3131 256.027 74.2458 255.793 74.1192L230.893 60.2839C230.541 60.0781 230.284 59.7436 230.177 59.3517C230.069 58.9597 230.12 58.5415 230.318 58.1863C230.516 57.8311 230.845 57.5671 231.236 57.4506C231.626 57.3341 232.047 57.3744 232.408 57.5629L257.32 71.3983C257.623 71.566 257.861 71.8293 257.997 72.1467C258.134 72.4641 258.16 72.8176 258.073 73.1517C257.985 73.4857 257.789 73.7813 257.514 73.9919C257.24 74.2026 256.903 74.3163 256.556 74.3152Z" fill="#263238"/>
<path d="M190.141 89.3149C188.625 88.4387 187.526 89.1996 187.526 91.125C187.526 92.0879 187.765 93.0358 188.221 93.8846C188.677 94.7334 189.337 95.4568 190.141 95.9905C190.572 96.251 191.066 96.3888 191.57 96.3888C192.074 96.3888 192.568 96.251 192.999 95.9905L195.417 100.349C194.567 100.816 193.602 101.039 192.632 100.992C191.661 100.946 190.723 100.631 189.921 100.083C187.957 98.8857 186.319 97.2239 185.152 95.2451C183.986 93.2663 183.327 91.0315 183.233 88.7384C183.233 84.461 186.114 82.9737 190.083 85.2796C192.324 86.7177 194.16 88.7018 195.417 91.0443L192.999 92.9582C192.403 91.5039 191.413 90.2427 190.141 89.3149Z" fill="#005400"/>
<path d="M209.336 103.761C209.336 108.073 206.409 109.526 202.394 107.22C200.373 106.017 198.682 104.335 197.471 102.323C196.26 100.312 195.566 98.0335 195.452 95.6906C195.452 91.3786 198.379 89.9259 202.394 92.2318C204.42 93.4296 206.115 95.1104 207.326 97.123C208.538 99.1355 209.229 101.417 209.336 103.761ZM199.744 98.2617C199.765 99.2516 200.021 100.223 200.491 101.095C200.962 101.967 201.634 102.715 202.452 103.277C203.887 104.107 205.044 103.277 205.044 101.317C205.04 100.349 204.802 99.397 204.351 98.5401C203.9 97.6832 203.249 96.9471 202.452 96.3939C200.994 95.5523 199.744 96.2671 199.744 98.2617Z" fill="#005400"/>
<path d="M214 99.1843L218.998 109.561V102.09L222.782 104.269V118.808L219.31 116.801L214.335 106.517V113.942L210.528 111.751V97.1782L214 99.1843Z" fill="#005400"/>
<path d="M235.151 111.348V115.153L231.541 113.077V123.823L227.364 121.413V110.668L223.777 108.604V104.811L235.151 111.348Z" fill="#005400"/>
<path d="M243.296 128.526L238.552 125.794L237.904 127.477L233.623 125.01L238.957 113.538L243.25 116.005L248.387 133.507L243.932 130.948L243.296 128.526ZM242.266 124.491L240.97 119.522L239.64 122.981L242.266 124.491Z" fill="#005400"/>
<path d="M255.018 126.636C253.502 125.771 252.403 126.52 252.403 128.457C252.405 129.42 252.644 130.367 253.1 131.216C253.556 132.064 254.215 132.788 255.018 133.323C255.451 133.581 255.947 133.717 256.452 133.717C256.957 133.717 257.453 133.581 257.887 133.323L260.305 137.681C259.451 138.143 258.485 138.363 257.514 138.316C256.543 138.27 255.603 137.958 254.798 137.416C252.832 136.217 251.192 134.553 250.026 132.572C248.859 130.591 248.201 128.354 248.11 126.059C248.11 121.782 251.003 120.294 254.96 122.6C257.198 124.045 259.036 126.028 260.305 128.365L257.887 130.267C257.277 128.821 256.286 127.566 255.018 126.636Z" fill="#005400"/>
<path d="M271.714 132.389V136.182L268.104 134.107V144.887L263.927 142.477V131.732L260.34 129.668V125.875L271.714 132.389Z" fill="#005400"/>
<path d="M284.06 150.237C285.09 150.825 285.877 150.363 285.877 148.922V140.54L290.065 142.938V151.32C290.065 155.183 287.751 156.336 284.049 154.226C282.265 153.239 280.765 151.812 279.694 150.082C278.622 148.352 278.014 146.376 277.928 144.345V135.963L282.116 138.373V146.755C282.132 147.449 282.318 148.128 282.657 148.735C282.995 149.342 283.477 149.857 284.06 150.237Z" fill="#005400"/>
<path d="M296.811 150.283C296.337 150.017 296.036 150.006 296.036 150.444C296.036 152.266 302.573 154.894 302.573 160.163C302.573 163.392 300.109 163.403 297.262 161.766C294.76 160.238 292.605 158.208 290.933 155.805L292.484 153.084C293.756 155.047 295.389 156.753 297.297 158.111C297.91 158.469 298.304 158.469 298.304 157.95C298.304 156.059 291.755 153.545 291.755 148.438C291.755 145.532 293.884 144.979 297.17 146.824C299.287 148.1 301.15 149.753 302.666 151.701L301.15 154.491C299.898 152.902 298.439 151.487 296.811 150.283Z" fill="#005400"/>
<path d="M169.094 160.959C173.789 155.213 176.152 147.923 175.718 140.526C175.283 133.13 172.082 126.164 166.747 121.004C161.411 115.843 154.329 112.863 146.896 112.65C139.464 112.438 132.221 115.009 126.597 119.856C120.974 124.703 117.377 131.474 116.518 138.834C115.658 146.193 117.598 153.606 121.954 159.611C126.311 165.615 132.767 169.775 140.05 171.268C147.333 172.762 154.914 171.482 161.296 167.68L175.782 173.952L169.094 160.959Z" fill="#005400"/>
<path opacity="0.4" d="M169.094 160.959C173.789 155.213 176.152 147.923 175.718 140.526C175.283 133.13 172.082 126.164 166.747 121.004C161.411 115.843 154.329 112.863 146.896 112.65C139.464 112.438 132.221 115.009 126.597 119.856C120.974 124.703 117.377 131.474 116.518 138.834C115.658 146.193 117.598 153.606 121.954 159.611C126.311 165.615 132.767 169.775 140.05 171.268C147.333 172.762 154.914 171.482 161.296 167.68L175.782 173.952L169.094 160.959Z" fill="black"/>
<path d="M135.03 140.667C135.03 140.218 134.706 139.964 134.116 139.964C132.747 140.143 131.469 140.743 130.459 141.682L128.816 138.5C130.546 137.203 132.635 136.47 134.798 136.401C137.575 136.401 139.681 137.854 139.681 140.022C139.681 141.567 138.524 143.054 137.043 144.541L134.972 146.582H139.866V149.972H129.349V147.193L134.035 142.362C134.539 141.917 134.888 141.323 135.03 140.667Z" fill="white"/>
<path d="M148.429 136.597L145.235 144.23H146.543V141.659H150.57V144.23H152.097V147.377H150.57V149.971H146.543V147.377H140.815V144.518L144.287 136.597H148.429Z" fill="white"/>
<path d="M164.523 143.319V149.971H160.219V144.552C160.244 144.376 160.23 144.196 160.18 144.025C160.129 143.855 160.042 143.697 159.924 143.562C159.807 143.428 159.662 143.32 159.499 143.246C159.337 143.172 159.16 143.134 158.981 143.134C158.136 143.134 157.604 143.792 157.604 144.806V149.971H153.3V135.836H157.604V141.036C157.941 140.506 158.41 140.072 158.966 139.777C159.522 139.481 160.145 139.335 160.774 139.353C161.29 139.339 161.803 139.435 162.28 139.633C162.756 139.83 163.185 140.126 163.539 140.5C163.893 140.875 164.163 141.319 164.333 141.805C164.503 142.291 164.567 142.806 164.523 143.319Z" fill="white"/>
<path d="M304.876 250.45V393.704C304.879 395.324 304.453 396.917 303.641 398.321C302.83 399.725 301.662 400.891 300.254 401.702C298.846 402.513 297.249 402.941 295.623 402.941C293.997 402.942 292.4 402.516 290.992 401.706L213.561 357.156L199.838 349.27C195.112 346.547 191.187 342.636 188.454 337.928C185.721 333.22 184.276 327.879 184.264 322.44V179.175C184.261 177.555 184.687 175.963 185.499 174.559C186.31 173.155 187.478 171.988 188.886 171.177C190.294 170.366 191.891 169.939 193.517 169.938C195.143 169.937 196.74 170.364 198.148 171.174L289.325 223.621C294.053 226.34 297.979 230.25 300.708 234.96C303.438 239.669 304.876 245.012 304.876 250.45Z" fill="#005400"/>
<path opacity="0.5" d="M304.876 250.45V393.704C304.879 395.324 304.453 396.917 303.641 398.321C302.83 399.725 301.662 400.891 300.254 401.702C298.846 402.513 297.249 402.941 295.623 402.941C293.997 402.942 292.4 402.516 290.992 401.706L213.561 357.156L199.838 349.27C195.112 346.547 191.187 342.636 188.454 337.928C185.721 333.22 184.276 327.879 184.264 322.44V179.175C184.261 177.555 184.687 175.963 185.499 174.559C186.31 173.155 187.478 171.988 188.886 171.177C190.294 170.366 191.891 169.939 193.517 169.938C195.143 169.937 196.74 170.364 198.148 171.174L289.325 223.621C294.053 226.34 297.979 230.25 300.708 234.96C303.438 239.669 304.876 245.012 304.876 250.45Z" fill="white"/>
<path d="M260.271 335.215C260.271 335.215 274.769 359.174 264.297 386.187L213.525 357.156L260.271 335.215Z" fill="#263238"/>
<path d="M283.392 227.573C284.49 218.694 278.155 210.609 269.244 209.516C260.333 208.423 252.22 214.734 251.123 223.614C250.025 232.493 256.36 240.578 265.271 241.671C274.182 242.764 282.295 236.453 283.392 227.573Z" fill="#263238"/>
<path d="M267.34 180.156C267.34 180.156 272.327 172.085 273.855 172.673C275.382 173.261 272.86 180.951 272.86 180.951C272.86 180.951 280.404 182.519 279.004 184.41C277.603 186.301 268.382 185.851 268.382 185.851L267.34 180.156Z" fill="#263238"/>
<path d="M270.811 200.954C267.34 226.942 245.356 226.942 245.356 226.942L199.304 206.742C199.304 206.742 195.833 203.71 194.769 196.746C194.36 193.894 194.36 190.998 194.769 188.145C194.769 188.145 194.769 188.088 194.769 188.065C196.238 177.135 204.442 165.386 222.307 161.777C226.222 160.99 230.208 160.603 234.202 160.624C236.134 160.618 238.065 160.714 239.987 160.913C253.872 162.273 263.603 168.73 268.242 178.772C269.286 181.038 270.063 183.418 270.557 185.862C271.498 190.842 271.584 195.946 270.811 200.954Z" fill="#263238"/>
<path d="M160.254 251.223C160.254 251.223 143.905 250.658 137.61 266.534C137.61 266.534 144.553 271.204 153.659 266.534C162.765 261.865 160.254 251.223 160.254 251.223Z" fill="#005400"/>
<path opacity="0.5" d="M160.254 251.223C160.254 251.223 143.905 250.658 137.61 266.534C137.61 266.534 144.553 271.204 153.659 266.534C162.765 261.865 160.254 251.223 160.254 251.223Z" fill="black"/>
<path d="M159.791 258.867C159.791 258.867 155.163 238.829 152.722 238.587C150.28 238.345 149.806 244.698 150.003 248.283L144.217 235.878C144.034 235.492 143.773 235.148 143.451 234.867C143.129 234.586 142.752 234.373 142.345 234.242C141.937 234.112 141.507 234.066 141.081 234.107C140.655 234.148 140.241 234.276 139.867 234.483C134.081 237.653 123.934 247.292 145.328 271.123L159.791 258.867Z" fill="#945959"/>
<path d="M219.033 245.009L215.562 244.559C212.064 244.097 208.505 244.571 205.252 245.933C201.998 247.294 199.167 249.495 197.049 252.307L176.395 279.701L160.197 251.223C160.197 251.223 158.253 270.593 137.553 266.535L159.78 303.809C161.187 306.169 163.145 308.155 165.487 309.599C167.83 311.043 170.488 311.902 173.235 312.102C175.982 312.302 178.737 311.838 181.265 310.75C183.794 309.661 186.021 307.98 187.758 305.85L206.78 282.549L219.033 245.009Z" fill="#005400"/>
<path d="M263.117 308.94C258.488 320.63 257.979 322.913 260.803 328.759C262.769 333.076 264.318 337.57 265.431 342.179C265.431 342.179 243.979 366.137 213.444 357.167L199.721 349.281C196.867 347.641 194.297 345.555 192.108 343.101L196.285 312.064C196.495 310.43 196.329 308.77 195.799 307.21L191.413 294.401C189.273 288.145 188.955 281.412 190.495 274.983C192.035 268.554 195.37 262.691 200.114 258.071L214.855 243.717L253.571 248.652L259.356 250.301C263.144 251.392 266.409 253.809 268.551 257.107C270.694 260.404 271.57 264.362 271.019 268.252C269.122 281.857 266.021 301.595 263.117 308.94Z" fill="#005400"/>
<path opacity="0.5" d="M263.117 308.94C258.488 320.63 257.979 322.913 260.803 328.759C262.769 333.076 264.318 337.57 265.431 342.179C265.431 342.179 243.979 366.137 213.444 357.167L199.721 349.281C196.867 347.641 194.297 345.555 192.108 343.101L196.285 312.064C196.495 310.43 196.329 308.77 195.799 307.21L191.413 294.401C189.273 288.145 188.955 281.412 190.495 274.983C192.035 268.554 195.37 262.691 200.114 258.071L214.855 243.717L253.571 248.652L259.356 250.301C263.144 251.392 266.409 253.809 268.551 257.107C270.694 260.404 271.57 264.362 271.019 268.252C269.122 281.857 266.021 301.595 263.117 308.94Z" fill="black"/>
<path d="M239.767 274.017L232.015 267.434C231.194 266.734 230.204 266.259 229.143 266.057C228.081 265.855 226.986 265.932 225.963 266.281L216.591 269.497L215.33 264.263C215.133 263.449 214.773 262.682 214.271 262.011C213.769 261.339 213.135 260.775 212.409 260.354C211.682 259.933 210.877 259.662 210.043 259.56C209.209 259.457 208.362 259.523 207.554 259.755L203.493 260.908L210.366 247.787C212.61 243.514 216.067 239.994 220.305 237.664L223.001 236.189L245.275 237.342C245.275 237.342 253.571 240.801 253.571 248.583L239.767 273.948" fill="#005400"/>
<path d="M245.368 247.176L223.036 264.517V209.302H245.368V247.176Z" fill="#945959"/>
<path d="M223.383 242.622L216.591 269.544L245.275 247.176L223.383 242.622Z" fill="#945959"/>
<path d="M223.036 238.621C228.002 236.784 232.541 233.96 236.378 230.322C240.215 226.683 243.27 222.305 245.356 217.453V209.302H223.025L223.036 238.621Z" fill="#703838"/>
<path d="M227.849 168.384C219.38 168.384 201.376 173.088 199.293 195.178C197.21 217.269 199.224 234.379 210.655 236.039C222.087 237.699 248.654 229.432 252.217 200.839C255.781 172.246 236.099 168.384 227.849 168.384Z" fill="#945959"/>
<path d="M214.521 204.529V217.546L206.861 215.205L214.521 204.529Z" fill="#703838"/>
<path d="M223.036 209.429C224.506 209.429 225.697 208.242 225.697 206.777C225.697 205.312 224.506 204.125 223.036 204.125C221.566 204.125 220.375 205.312 220.375 206.777C220.375 208.242 221.566 209.429 223.036 209.429Z" fill="#263238"/>
<path d="M208.18 204.932C208.178 205.456 208.02 205.968 207.726 206.402C207.432 206.837 207.016 207.175 206.529 207.374C206.043 207.573 205.508 207.624 204.992 207.52C204.477 207.417 204.004 207.163 203.633 206.792C203.262 206.421 203.009 205.948 202.908 205.434C202.806 204.92 202.859 204.387 203.061 203.903C203.263 203.419 203.604 203.006 204.041 202.715C204.479 202.424 204.993 202.269 205.519 202.269C205.869 202.269 206.216 202.338 206.54 202.472C206.863 202.606 207.157 202.802 207.405 203.05C207.652 203.297 207.848 203.591 207.981 203.914C208.114 204.237 208.181 204.583 208.18 204.932Z" fill="#263238"/>
<path d="M202.267 199.398L207.473 196.319C207.473 196.319 205.483 194.256 203.493 195.489C201.503 196.723 202.267 199.398 202.267 199.398Z" fill="#263238"/>
<path d="M210.921 222.826C213.457 223.01 215.981 222.336 218.084 220.912C218.084 220.912 218.581 224.682 215.411 225.397C212.24 226.112 210.921 222.826 210.921 222.826Z" fill="#703838"/>
<path d="M206.375 175.901C206.375 175.901 209.556 206.396 251.176 207.353C251.176 207.353 263.753 177.042 238.9 167.196C214.046 157.35 206.375 175.901 206.375 175.901Z" fill="#263238"/>
<path d="M263.429 202.788L258.315 199.837C256.371 198.684 253.687 198.845 250.713 200.551C244.812 203.941 240.022 212.208 240.022 218.999C240.022 222.4 241.179 224.763 243.169 225.916L248.191 228.799L248.48 228.96L248.654 229.064C250.551 229.986 253.085 229.767 255.874 228.164C261.775 224.706 266.565 216.508 266.565 209.717C266.53 206.282 265.339 203.906 263.429 202.788Z" fill="#005400"/>
<path d="M263.389 220.154C267.562 212.952 267.562 205.167 263.389 202.767C259.217 200.366 252.451 204.258 248.278 211.46C244.105 218.662 244.105 226.447 248.278 228.847C252.451 231.248 259.216 227.355 263.389 220.154Z" fill="#005400"/>
<path opacity="0.5" d="M263.389 220.154C267.562 212.952 267.562 205.167 263.389 202.767C259.217 200.366 252.451 204.258 248.278 211.46C244.105 218.662 244.105 226.447 248.278 228.847C252.451 231.248 259.216 227.355 263.389 220.154Z" fill="black"/>
<path d="M265.477 209.187L262.006 207.169C260.687 206.385 258.847 206.489 256.811 207.653C254.683 209.039 252.913 210.903 251.643 213.096C250.372 215.289 249.638 217.75 249.498 220.278C249.498 222.584 250.32 224.233 251.65 224.994L255.121 226.965C255.183 227.01 255.249 227.049 255.318 227.08L255.434 227.15C256.247 227.457 257.124 227.561 257.988 227.453C258.851 227.344 259.675 227.026 260.386 226.527C262.512 225.143 264.281 223.28 265.552 221.089C266.822 218.898 267.557 216.44 267.699 213.914C267.606 211.573 266.796 209.948 265.477 209.187Z" fill="#005400"/>
<path d="M267.606 213.891C267.465 216.417 266.729 218.875 265.459 221.066C264.189 223.257 262.419 225.12 260.293 226.504C256.244 228.81 252.969 226.942 252.969 222.296C253.106 219.767 253.841 217.307 255.114 215.115C256.387 212.923 258.162 211.061 260.293 209.683C264.332 207.354 267.606 209.233 267.606 213.891Z" fill="#005400"/>
<path opacity="0.3" d="M267.606 213.891C267.465 216.417 266.729 218.875 265.459 221.066C264.189 223.257 262.419 225.12 260.293 226.504C256.244 228.81 252.969 226.942 252.969 222.296C253.106 219.767 253.841 217.307 255.114 215.115C256.387 212.923 258.162 211.061 260.293 209.683C264.332 207.354 267.606 209.233 267.606 213.891Z" fill="black"/>
<path d="M247.543 162.435C244.226 159.882 240.164 158.477 235.972 158.434H234.943C230.699 158.388 226.461 158.775 222.296 159.587C223.06 159.587 223.823 159.587 224.61 159.587H222.296V161.731H224.448C231.865 161.983 238.894 165.098 244.048 170.419C249.202 175.74 252.078 182.849 252.067 190.244V199.318C252.067 199.676 252.142 200.031 252.288 200.359C252.434 200.687 252.648 200.98 252.915 201.22C253.183 201.461 253.498 201.642 253.84 201.753C254.182 201.864 254.544 201.903 254.902 201.866H255.168L257.482 201.151C257.328 201.199 257.169 201.23 257.008 201.243C257.698 201.15 258.329 200.807 258.781 200.279C259.234 199.752 259.476 199.077 259.461 198.384V189.967C259.438 174.737 252.831 166.551 247.543 162.435Z" fill="#005400"/>
<path d="M232.976 235.405C232.021 235.405 231.078 235.201 230.21 234.806L222.979 231.474C222.865 231.433 222.762 231.37 222.675 231.288C222.587 231.206 222.518 231.106 222.471 230.996C222.425 230.886 222.401 230.767 222.403 230.647C222.405 230.528 222.431 230.41 222.481 230.301C222.531 230.192 222.603 230.094 222.692 230.015C222.782 229.935 222.887 229.874 223.001 229.837C223.116 229.8 223.236 229.787 223.356 229.799C223.475 229.811 223.591 229.847 223.696 229.906L230.928 233.238C231.85 233.665 232.883 233.795 233.883 233.609C234.883 233.423 235.799 232.93 236.505 232.2L243.447 225.052C243.61 224.89 243.83 224.799 244.06 224.799C244.29 224.799 244.511 224.89 244.674 225.052C244.833 225.215 244.923 225.435 244.923 225.663C244.923 225.891 244.833 226.11 244.674 226.274L237.731 233.422C237.113 234.054 236.373 234.556 235.556 234.897C234.739 235.237 233.861 235.41 232.976 235.405Z" fill="#005400"/>
<path opacity="0.5" d="M232.976 235.405C232.021 235.405 231.078 235.201 230.21 234.806L222.979 231.474C222.865 231.433 222.762 231.37 222.675 231.288C222.587 231.206 222.518 231.106 222.471 230.996C222.425 230.886 222.401 230.767 222.403 230.647C222.405 230.528 222.431 230.41 222.481 230.301C222.531 230.192 222.603 230.094 222.692 230.015C222.782 229.935 222.887 229.874 223.001 229.837C223.116 229.8 223.236 229.787 223.356 229.799C223.475 229.811 223.591 229.847 223.696 229.906L230.928 233.238C231.85 233.665 232.883 233.795 233.883 233.609C234.883 233.423 235.799 232.93 236.505 232.2L243.447 225.052C243.61 224.89 243.83 224.799 244.06 224.799C244.29 224.799 244.511 224.89 244.674 225.052C244.833 225.215 244.923 225.435 244.923 225.663C244.923 225.891 244.833 226.11 244.674 226.274L237.731 233.422C237.113 234.054 236.373 234.556 235.556 234.897C234.739 235.237 233.861 235.41 232.976 235.405Z" fill="black"/>
<path d="M224.876 229.052C224.876 229.718 224.678 230.369 224.307 230.922C223.935 231.476 223.408 231.907 222.79 232.162C222.173 232.417 221.494 232.484 220.838 232.354C220.183 232.224 219.581 231.903 219.108 231.432C218.636 230.962 218.314 230.362 218.184 229.709C218.053 229.056 218.12 228.379 218.376 227.764C218.632 227.148 219.065 226.623 219.62 226.253C220.176 225.883 220.829 225.685 221.497 225.685C222.393 225.685 223.253 226.04 223.886 226.671C224.52 227.303 224.876 228.159 224.876 229.052Z" fill="#005400"/>
<path opacity="0.5" d="M224.876 229.052C224.876 229.718 224.678 230.369 224.307 230.922C223.935 231.476 223.408 231.907 222.79 232.162C222.173 232.417 221.494 232.484 220.838 232.354C220.183 232.224 219.581 231.903 219.108 231.432C218.636 230.962 218.314 230.362 218.184 229.709C218.053 229.056 218.12 228.379 218.376 227.764C218.632 227.148 219.065 226.623 219.62 226.253C220.176 225.883 220.829 225.685 221.497 225.685C222.393 225.685 223.253 226.04 223.886 226.671C224.52 227.303 224.876 228.159 224.876 229.052Z" fill="black"/>
<path d="M259.437 189.967V198.384C259.452 199.078 259.21 199.752 258.758 200.28C258.306 200.807 257.674 201.15 256.984 201.243C256.603 201.284 256.218 201.244 255.853 201.126C255.489 201.008 255.153 200.815 254.868 200.56C254.583 200.304 254.355 199.992 254.2 199.643C254.044 199.294 253.964 198.916 253.964 198.534V189.967C253.971 185.879 253.147 181.832 251.543 178.069C249.939 174.306 247.588 170.905 244.63 168.071C241.673 165.237 238.17 163.029 234.334 161.579C230.498 160.129 226.407 159.467 222.307 159.633C226.472 158.821 230.71 158.435 234.954 158.48H235.961C240.152 158.524 244.214 159.928 247.531 162.481C252.831 166.551 259.437 174.737 259.437 189.967Z" fill="#005400"/>
<path opacity="0.5" d="M259.437 189.967V198.384C259.452 199.078 259.21 199.752 258.758 200.28C258.306 200.807 257.674 201.15 256.984 201.243C256.603 201.284 256.218 201.244 255.853 201.126C255.489 201.008 255.153 200.815 254.868 200.56C254.583 200.304 254.355 199.992 254.2 199.643C254.044 199.294 253.964 198.916 253.964 198.534V189.967C253.971 185.879 253.147 181.832 251.543 178.069C249.939 174.306 247.588 170.905 244.63 168.071C241.673 165.237 238.17 163.029 234.334 161.579C230.498 160.129 226.407 159.467 222.307 159.633C226.472 158.821 230.71 158.435 234.954 158.48H235.961C240.152 158.524 244.214 159.928 247.531 162.481C252.831 166.551 259.437 174.737 259.437 189.967Z" fill="black"/>
<path d="M246.432 348.578C246.432 348.578 240.832 363.947 260.849 370.864C260.849 370.864 267.387 361.295 260.849 353.467C254.312 345.638 246.432 348.578 246.432 348.578Z" fill="#005400"/>
<path opacity="0.7" d="M246.432 348.578C246.432 348.578 240.832 363.947 260.849 370.864C260.849 370.864 267.387 361.295 260.849 353.467C254.312 345.638 246.432 348.578 246.432 348.578Z" fill="black"/>
<path d="M253.456 349.281C253.456 349.281 233.901 356.418 234.005 359.185C234.109 361.952 242.313 360.062 242.313 360.062L239.316 362.022C236.161 364.073 233.716 367.044 232.316 370.53C232.011 371.299 232 372.153 232.286 372.929C232.572 373.705 233.135 374.349 233.866 374.739L241.295 378.659C241.714 378.88 242.174 379.016 242.647 379.058C243.12 379.099 243.597 379.046 244.049 378.901C244.501 378.756 244.919 378.522 245.279 378.213C245.638 377.904 245.932 377.526 246.143 377.102C246.557 376.287 247.129 375.562 247.826 374.968C248.523 374.374 249.332 373.924 250.204 373.643C254.242 372.306 261.775 368.455 264.795 357.917L253.456 349.281Z" fill="#945959"/>
<path d="M259.322 250.277C259.322 250.277 248.909 256.042 254.44 273.544C259.97 291.046 270.349 318.197 270.349 318.197L246.433 348.578C248.988 348.885 251.449 349.725 253.656 351.044C255.863 352.364 257.766 354.132 259.241 356.233C260.654 358.37 261.537 360.811 261.817 363.355C262.096 365.899 261.765 368.473 260.85 370.864L290.54 332.817C293.286 329.301 295.109 325.158 295.844 320.764C296.579 316.369 296.204 311.862 294.752 307.648L282.024 270.615C280.468 266.092 277.883 261.988 274.47 258.626C271.058 255.263 266.911 252.734 262.354 251.234L259.322 250.277Z" fill="#005400"/>
<path d="M83.5405 146.893L37.5239 120.376C36.9944 120.01 36.3817 119.782 35.7412 119.711C35.1008 119.641 34.4529 119.73 33.856 119.972C33.7302 120.03 33.6101 120.1 33.4973 120.18L23.4887 126.025H23.5581C22.2969 126.74 21.4985 128.4 21.4985 130.775V181.782C21.4985 186.094 24.1251 191.109 27.3764 192.977L73.393 219.495C73.9768 219.915 74.6719 220.156 75.3918 220.187C76.1117 220.218 76.8248 220.037 77.4427 219.668C77.4114 219.68 77.3836 219.7 77.3617 219.725L87.3009 213.96C88.5968 213.269 89.4184 211.585 89.4184 209.176V158.089C89.4184 153.777 86.8381 148.761 83.5405 146.893Z" fill="#005400"/>
<path d="M87.7754 151.724C86.8444 149.751 85.3774 148.078 83.5405 146.893L37.524 120.376C36.9944 120.01 36.3817 119.782 35.7413 119.711C35.1009 119.641 34.453 119.73 33.8561 119.972C33.7303 120.03 33.6102 120.1 33.4974 120.18L23.4888 126.025C24.101 125.713 24.7875 125.575 25.4732 125.626C26.1589 125.677 26.8173 125.915 27.3765 126.313L73.3931 152.831C75.2924 154.069 76.7977 155.82 77.7321 157.881L87.7754 151.724Z" fill="#005400"/>
<path d="M79.271 215.009C79.271 217.315 78.5305 218.918 77.3618 219.621L87.301 213.856C88.5969 213.165 89.4184 211.481 89.4184 209.072V158.088C89.3695 155.869 88.8073 153.691 87.7754 151.724L77.7321 157.881C78.6964 159.79 79.2221 161.889 79.271 164.026V215.009Z" fill="#005400"/>
<path opacity="0.3" d="M87.7754 151.724C86.8444 149.751 85.3774 148.078 83.5405 146.893L37.524 120.376C36.9944 120.01 36.3817 119.782 35.7413 119.711C35.1009 119.641 34.453 119.73 33.8561 119.972C33.7303 120.03 33.6102 120.1 33.4974 120.18L23.4888 126.025C24.101 125.713 24.7875 125.575 25.4732 125.626C26.1589 125.677 26.8173 125.915 27.3765 126.313L73.3931 152.831C75.2924 154.069 76.7977 155.82 77.7321 157.881L87.7754 151.724Z" fill="black"/>
<path opacity="0.6" d="M79.271 215.009C79.271 217.315 78.5305 218.918 77.3618 219.621L87.301 213.856C88.5969 213.165 89.4184 211.481 89.4184 209.072V158.088C89.3695 155.869 88.8073 153.691 87.7754 151.724L77.7321 157.881C78.6964 159.79 79.2221 161.889 79.271 164.026V215.009Z" fill="black"/>
<path d="M65.7799 178.634C65.7799 185.24 63.1534 187.488 59.2194 185.217C58.1341 184.601 57.1851 183.773 56.4295 182.783C55.6739 181.792 55.1273 180.659 54.8225 179.452C53.6655 180.87 51.872 180.963 49.3496 179.51C45.2073 177.123 41.9444 171.439 41.9444 165.917C41.9444 160.394 45.1726 158.492 49.3496 160.89C51.4692 162.135 53.1813 163.965 54.2787 166.159V163.98L58.6408 166.493V178.438C58.5759 179.066 58.685 179.701 58.9563 180.272C59.2276 180.843 59.6507 181.329 60.1797 181.678C61.6492 182.531 62.5517 181.09 62.5517 176.812C62.5517 169.329 57.7383 161.397 50.6224 157.304C43.5064 153.211 38.7046 156.059 38.7046 163.761C38.7978 167.847 39.9279 171.844 41.9896 175.378C44.0513 178.912 46.9773 181.869 50.4951 183.972C52.4051 185.144 54.5741 185.833 56.8127 185.978L57.8425 189.956C55.2359 189.746 52.7171 188.92 50.4951 187.546C41.2386 182.208 35.1177 171.462 35.1177 161.732C35.1177 152.001 41.2964 148.473 50.6224 153.845C59.6359 159.022 65.7799 169.387 65.7799 178.634ZM54.3481 173.088C54.3706 171.626 54.0126 170.183 53.309 168.9C52.6053 167.617 51.58 166.538 50.3331 165.767C48.019 164.418 46.3644 165.363 46.3644 168.499C46.3346 169.964 46.6842 171.411 47.3794 172.701C48.0746 173.992 49.0919 175.082 50.3331 175.867C52.6472 177.17 54.3481 176.328 54.3481 173.088Z" fill="#005400"/>
<g opacity="0.9">
<path d="M65.7799 178.634C65.7799 185.24 63.1534 187.488 59.2194 185.217C58.1341 184.601 57.1851 183.773 56.4295 182.783C55.6739 181.792 55.1273 180.659 54.8225 179.452C53.6655 180.87 51.872 180.963 49.3496 179.51C45.2073 177.123 41.9444 171.439 41.9444 165.917C41.9444 160.394 45.1726 158.492 49.3496 160.89C51.4692 162.135 53.1813 163.965 54.2787 166.159V163.98L58.6408 166.493V178.438C58.5759 179.066 58.685 179.701 58.9563 180.272C59.2276 180.843 59.6507 181.329 60.1797 181.678C61.6492 182.531 62.5517 181.09 62.5517 176.812C62.5517 169.329 57.7383 161.397 50.6224 157.304C43.5064 153.211 38.7046 156.059 38.7046 163.761C38.7978 167.847 39.9279 171.844 41.9896 175.378C44.0513 178.912 46.9773 181.869 50.4951 183.972C52.4051 185.144 54.5741 185.833 56.8127 185.978L57.8425 189.956C55.2359 189.746 52.7171 188.92 50.4951 187.546C41.2386 182.208 35.1177 171.462 35.1177 161.732C35.1177 152.001 41.2964 148.473 50.6224 153.845C59.6359 159.022 65.7799 169.387 65.7799 178.634ZM54.3481 173.088C54.3706 171.626 54.0126 170.183 53.309 168.9C52.6053 167.617 51.58 166.538 50.3331 165.767C48.019 164.418 46.3644 165.363 46.3644 168.499C46.3346 169.964 46.6842 171.411 47.3794 172.701C48.0746 173.992 49.0919 175.082 50.3331 175.867C52.6472 177.17 54.3481 176.328 54.3481 173.088Z" fill="white"/>
</g>
<path d="M83.5405 237.722L37.5239 211.204C36.9951 210.837 36.3816 210.608 35.7404 210.539C35.0992 210.471 34.4511 210.565 33.856 210.812C33.7302 210.87 33.6101 210.94 33.4973 211.02L23.4887 216.865H23.5581C22.2969 217.58 21.4985 219.24 21.4985 221.604V272.587C21.4985 276.911 24.1251 281.915 27.3764 283.782L73.393 310.3C73.9756 310.724 74.671 310.966 75.3916 310.997C76.1122 311.028 76.8258 310.846 77.4427 310.473L77.3617 310.542L87.3009 304.72C88.5968 304.04 89.4184 302.414 89.4184 299.935V248.906C89.4184 244.594 86.8381 239.59 83.5405 237.722Z" fill="#005400"/>
<path d="M87.7754 242.553C86.8476 240.578 85.3798 238.904 83.5405 237.722L37.524 211.204C36.9952 210.837 36.3817 210.608 35.7405 210.539C35.0993 210.471 34.4511 210.565 33.8561 210.812C33.7303 210.87 33.6102 210.94 33.4974 211.02L23.4888 216.865C24.0996 216.551 24.7858 216.41 25.4717 216.459C26.1576 216.508 26.8168 216.744 27.3765 217.142L73.3931 243.66C75.2954 244.899 76.8012 246.655 77.7321 248.721L87.7754 242.553Z" fill="#005400"/>
<path d="M79.271 305.827C79.271 308.133 78.5305 309.735 77.3618 310.496L87.301 304.674C88.5969 303.994 89.4184 302.368 89.4184 299.889V248.906C89.3694 246.691 88.8071 244.516 87.7754 242.553L77.7321 248.71C78.6962 250.615 79.2219 252.711 79.271 254.844V305.827Z" fill="#005400"/>
<path opacity="0.3" d="M87.7754 242.553C86.8476 240.578 85.3798 238.904 83.5405 237.722L37.524 211.204C36.9952 210.837 36.3817 210.608 35.7405 210.539C35.0993 210.471 34.4511 210.565 33.8561 210.812C33.7303 210.87 33.6102 210.94 33.4974 211.02L23.4888 216.865C24.0996 216.551 24.7858 216.41 25.4717 216.459C26.1576 216.508 26.8168 216.744 27.3765 217.142L73.3931 243.66C75.2954 244.899 76.8012 246.655 77.7321 248.721L87.7754 242.553Z" fill="black"/>
<path opacity="0.6" d="M79.271 305.827C79.271 308.133 78.5305 309.735 77.3618 310.496L87.301 304.674C88.5969 303.994 89.4184 302.368 89.4184 299.889V248.906C89.3694 246.691 88.8071 244.516 87.7754 242.553L77.7321 248.71C78.6962 250.615 79.2219 252.711 79.271 254.844V305.827Z" fill="black"/>
<path d="M45.2418 260.516L34.1455 242.553V266.892L45.2418 260.516Z" fill="#005400"/>
<path d="M55.5513 265.693L66.6244 284.797V260.493L55.5513 265.693Z" fill="#005400"/>
<path d="M35.8232 241.735L47.2203 260.182C47.2686 260.222 47.3114 260.269 47.3476 260.32C47.3577 260.366 47.3577 260.413 47.3476 260.458L50.7378 265.947L53.6074 264.598C53.652 264.549 53.7026 264.507 53.7578 264.471C53.8709 264.405 53.9975 264.366 54.128 264.355L65.6987 258.948L35.8232 241.735Z" fill="#005400"/>
<path d="M53.8731 266.477L50.7722 267.929C50.6527 267.985 50.5221 268.012 50.3904 268.01C50.2307 268.012 50.0732 267.973 49.9333 267.896C49.7934 267.819 49.6758 267.707 49.592 267.572L46.2018 262.084L35.0708 268.494L65.0273 285.719L53.8731 266.477Z" fill="#005400"/>
<g opacity="0.9">
<path d="M45.2418 260.516L34.1455 242.553V266.892L45.2418 260.516Z" fill="white"/>
<path d="M55.5513 265.692L66.6244 284.797V260.493L55.5513 265.692Z" fill="white"/>
<path d="M35.8232 241.734L47.2203 260.182C47.2686 260.222 47.3114 260.268 47.3476 260.32C47.3577 260.365 47.3577 260.413 47.3476 260.458L50.7378 265.946L53.6074 264.597C53.652 264.549 53.7026 264.506 53.7578 264.471C53.8709 264.405 53.9975 264.365 54.128 264.355L65.6987 258.948L35.8232 241.734Z" fill="white"/>
<path d="M53.8731 266.477L50.7722 267.929C50.6527 267.985 50.5221 268.012 50.3904 268.01C50.2307 268.012 50.0732 267.973 49.9333 267.896C49.7934 267.819 49.6758 267.707 49.592 267.572L46.2018 262.084L35.0708 268.494L65.0273 285.719L53.8731 266.477Z" fill="white"/>
</g>
<path d="M83.5405 56.1101L37.5239 29.5923C36.9951 29.2246 36.3816 28.9958 35.7404 28.9273C35.0992 28.8588 34.4511 28.9527 33.856 29.2003C33.7302 29.2582 33.6101 29.3277 33.4973 29.4078L23.4887 35.2533H23.5581C22.2969 35.9566 21.4985 37.6284 21.4985 39.9919V90.9752C21.4985 95.2873 24.1251 100.303 27.3764 102.17L73.393 128.688C73.9756 129.112 74.671 129.354 75.3916 129.385C76.1122 129.416 76.8258 129.234 77.4427 128.861L77.3617 128.919L87.3009 123.154C88.5968 122.474 89.4184 120.848 89.4184 118.369V67.2591C89.4184 62.9471 86.8381 57.9318 83.5405 56.1101Z" fill="#005400"/>
<path d="M87.7754 60.9064C86.8478 58.9282 85.3802 57.2501 83.5405 56.064L37.524 29.5923C36.9952 29.2246 36.3817 28.9958 35.7405 28.9273C35.0993 28.8588 34.4511 28.9527 33.8561 29.2003C33.7303 29.2582 33.6102 29.3277 33.4974 29.4078L23.4888 35.2533C24.0996 34.9385 24.7858 34.7978 25.4717 34.8467C26.1576 34.8955 26.8168 35.1319 27.3765 35.53L73.3931 62.0478C75.2954 63.2868 76.8012 65.0434 77.7321 67.1092L87.7754 60.9064Z" fill="#005400"/>
<path d="M79.271 124.134C79.271 126.44 78.5305 128.042 77.3618 128.746L87.301 122.981C88.5969 122.301 89.4184 120.675 89.4184 118.196V67.259C89.3694 65.0435 88.8071 62.8694 87.7754 60.9062L77.7321 67.063C78.6962 68.9682 79.2219 71.0636 79.271 73.1967V124.134Z" fill="#005400"/>
<path opacity="0.3" d="M87.7754 60.9064C86.8478 58.9282 85.3802 57.2501 83.5405 56.064L37.524 29.5923C36.9952 29.2246 36.3817 28.9958 35.7405 28.9273C35.0993 28.8588 34.4511 28.9527 33.8561 29.2003C33.7303 29.2582 33.6102 29.3277 33.4974 29.4078L23.4888 35.2533C24.0996 34.9385 24.7858 34.7978 25.4717 34.8467C26.1576 34.8955 26.8168 35.1319 27.3765 35.53L73.3931 62.0478C75.2954 63.2868 76.8012 65.0434 77.7321 67.1092L87.7754 60.9064Z" fill="black"/>
<path opacity="0.6" d="M79.271 124.134C79.271 126.44 78.5305 128.042 77.3618 128.746L87.301 122.981C88.5969 122.301 89.4184 120.675 89.4184 118.196V67.259C89.3694 65.0435 88.8071 62.8694 87.7754 60.9062L77.7321 67.063C78.6962 68.9682 79.2219 71.0636 79.271 73.1967V124.134Z" fill="black"/>
<path d="M64.2175 102.228C62.4472 99.3224 60.6653 96.4631 58.895 93.5346C58.6142 92.9799 58.2217 92.4889 57.7419 92.0921C57.2621 91.6954 56.7054 91.4014 56.1065 91.2287C55.2503 91.0558 54.394 90.8598 53.5147 90.6061C53.2015 90.476 52.9381 90.2498 52.7626 89.9605C49.8657 85.0202 47.5627 79.7573 45.9012 74.2804C45.8658 74.1633 45.8558 74.0401 45.8717 73.9188C45.8877 73.7976 45.9293 73.6811 45.9937 73.5771C46.5375 73.0352 47.1508 72.5394 47.7062 72.0552C48.2616 71.5709 48.5508 70.4526 48.1459 68.9999C47.2896 65.9215 46.4681 62.8431 45.6119 59.7763C45.4462 58.9049 45.0531 58.0923 44.4722 57.4204C43.8913 56.7484 43.143 56.2408 42.3027 55.9485C40.4368 55.4316 38.4559 55.5041 36.6331 56.156C35.9272 56.4212 35.557 57.0553 35.5454 58.1506C35.8462 60.2605 36.0429 62.3474 36.4479 64.4918C39.302 79.9567 46.1673 94.1764 57.0437 107.151C57.3277 107.581 57.7091 107.939 58.1573 108.195C58.6055 108.452 59.1079 108.599 59.624 108.627C61.4246 108.584 63.1546 107.92 64.5184 106.747C65.5482 105.825 65.444 104.188 64.2175 102.228Z" fill="#005400"/>
<path d="M64.0784 86.5134C63.8363 83.1971 62.919 79.9646 61.3824 77.0131C60.2352 74.7073 58.7751 72.5698 57.0434 70.6604C56.5922 70.1531 56.2103 69.9916 55.9789 70.3721C55.7475 70.7526 55.9789 71.2945 56.4186 71.7902L56.8699 72.3091C60.068 75.9876 62.0835 80.5385 62.6552 85.372C62.6495 85.7245 62.6845 86.0765 62.7593 86.4212C62.9047 86.8177 63.138 87.1763 63.442 87.4703C63.685 87.6433 63.9627 87.4703 64.1594 87.4703C64.09 86.9976 64.1015 86.7555 64.0784 86.5134Z" fill="#005400"/>
<path d="M53.5951 77.0473C55.0481 78.6398 55.931 80.6669 56.106 82.812C56.1822 83.1382 56.3029 83.4524 56.4647 83.7459C57.1705 84.3224 57.5176 84.1264 57.5176 83.4C57.2702 80.6495 56.1286 78.0547 54.2662 76.0096C53.8265 75.56 53.4679 75.4216 53.2596 75.8021C53.1847 76.0194 53.1766 76.2539 53.2364 76.4758C53.2961 76.6977 53.4211 76.8967 53.5951 77.0473Z" fill="#005400"/>
<g opacity="0.9">
<path d="M64.2175 102.228C62.4472 99.3224 60.6653 96.4631 58.895 93.5346C58.6142 92.9799 58.2217 92.4889 57.7419 92.0921C57.2621 91.6954 56.7054 91.4014 56.1065 91.2287C55.2503 91.0558 54.394 90.8598 53.5147 90.6061C53.2015 90.476 52.9381 90.2498 52.7626 89.9605C49.8657 85.0202 47.5627 79.7573 45.9012 74.2804C45.8658 74.1633 45.8558 74.0401 45.8717 73.9188C45.8877 73.7976 45.9293 73.6811 45.9937 73.5771C46.5375 73.0352 47.1508 72.5394 47.7062 72.0552C48.2616 71.5709 48.5508 70.4526 48.1459 68.9999C47.2896 65.9215 46.4681 62.8431 45.6119 59.7763C45.4462 58.9049 45.0531 58.0923 44.4722 57.4204C43.8913 56.7484 43.143 56.2408 42.3027 55.9485C40.4368 55.4316 38.4559 55.5041 36.6331 56.156C35.9272 56.4212 35.557 57.0553 35.5454 58.1506C35.8462 60.2605 36.0429 62.3474 36.4479 64.4918C39.302 79.9567 46.1673 94.1764 57.0437 107.151C57.3277 107.581 57.7091 107.939 58.1573 108.195C58.6055 108.452 59.1079 108.599 59.624 108.627C61.4246 108.584 63.1546 107.92 64.5184 106.747C65.5482 105.825 65.444 104.188 64.2175 102.228Z" fill="white"/>
<path d="M64.0784 86.5134C63.8363 83.1971 62.919 79.9646 61.3824 77.0131C60.2352 74.7073 58.7751 72.5698 57.0434 70.6604C56.5922 70.1531 56.2103 69.9916 55.9789 70.3721C55.7475 70.7526 55.9789 71.2945 56.4186 71.7902L56.8699 72.3091C60.068 75.9876 62.0835 80.5385 62.6552 85.372C62.6495 85.7245 62.6845 86.0765 62.7593 86.4212C62.9047 86.8177 63.138 87.1763 63.442 87.4703C63.685 87.6433 63.9627 87.4703 64.1594 87.4703C64.09 86.9976 64.1015 86.7555 64.0784 86.5134Z" fill="white"/>
<path d="M53.5951 77.0473C55.0481 78.6398 55.931 80.6669 56.106 82.812C56.1822 83.1382 56.3029 83.4524 56.4647 83.7459C57.1705 84.3224 57.5176 84.1264 57.5176 83.4C57.2702 80.6495 56.1286 78.0547 54.2662 76.0096C53.8265 75.56 53.4679 75.4216 53.2596 75.8021C53.1847 76.0194 53.1766 76.2539 53.2364 76.4758C53.2961 76.6977 53.4211 76.8967 53.5951 77.0473Z" fill="white"/>
</g>
<path d="M319.639 25.5334L330.481 31.6787V27.8509C330.481 27.5857 330.481 27.309 330.481 27.0438C330.481 26.7786 330.481 26.525 330.481 26.2713V26.133C330.874 21.0715 334.728 19.1231 339.425 21.8325C341.552 23.1359 343.375 24.8774 344.771 26.94C345.824 20.0224 351.459 17.5781 358.274 21.4866C365.841 25.8447 371.973 36.4749 371.973 45.1451V53.331C371.963 53.9858 372.125 54.632 372.444 55.2046C372.762 55.7773 373.227 56.2564 373.79 56.5939L380.177 60.3179C381.556 61.1322 382.698 62.2892 383.493 63.6756C384.288 65.062 384.709 66.6303 384.713 68.2271C384.713 68.8896 384.538 69.5404 384.205 70.114C383.873 70.6876 383.395 71.1638 382.819 71.4947C382.243 71.8255 381.589 71.9992 380.924 71.9984C380.26 71.9976 379.607 71.8222 379.032 71.4899L319.801 37.3742C318.23 36.4649 316.925 35.1618 316.016 33.5943C315.106 32.0268 314.624 30.2494 314.618 28.4389C314.617 27.8528 314.771 27.2769 315.064 26.7689C315.358 26.2608 315.78 25.8385 316.288 25.5442C316.797 25.2499 317.374 25.094 317.962 25.0921C318.551 25.0903 319.129 25.2424 319.639 25.5334Z" fill="#E6E6E6"/>
<path d="M402.29 23.9313L410.169 28.4393V25.6261C410.169 25.4301 410.169 25.2341 410.169 25.0381C410.169 24.8421 410.169 24.6576 410.169 24.4732V24.404C410.459 20.7261 413.259 19.308 416.672 21.2795C418.218 22.2232 419.543 23.485 420.56 24.9805C421.335 19.9767 425.431 18.1665 430.383 21.0143C435.891 24.1849 440.346 31.8866 440.346 38.2163V44.177C440.35 44.6443 440.476 45.1025 440.711 45.5067C440.946 45.9109 441.283 46.2473 441.688 46.4829L446.316 49.1924C447.323 49.7825 448.158 50.6253 448.736 51.6367C449.315 52.6481 449.617 53.7929 449.614 54.9571C449.613 55.4339 449.488 55.9023 449.25 56.3161C449.012 56.7299 448.67 57.0749 448.258 57.3169C447.846 57.559 447.377 57.6898 446.899 57.6966C446.42 57.7033 445.948 57.5856 445.529 57.3552L402.405 32.5438C401.263 31.8851 400.314 30.9387 399.654 29.7994C398.994 28.6602 398.646 27.3681 398.645 26.0527C398.644 25.627 398.756 25.2085 398.968 24.839C399.18 24.4696 399.486 24.1621 399.855 23.9474C400.224 23.7326 400.643 23.6181 401.07 23.6153C401.498 23.6125 401.918 23.7214 402.29 23.9313Z" fill="#E6E6E6"/>
</svg>
